<?xml version="1.0" encoding="UTF-8"?>
<svg id="Camada_2" data-name="Camada 2" xmlns="http://www.w3.org/2000/svg" viewBox="0 0 250 250">
  <defs>
    <style>
      .cls-1 {
        fill: #fff;
      }

      .cls-2 {
        fill: #f0f;
      }
    </style>
  </defs>
  <g id="grafitti-kalifa">
    <g>
      <rect x="0" y="0" width="250" height="250" rx="125" ry="125"/>
      <g>
        <path class="cls-1" d="m54.72,114.21c.21-.37.53-.69.79-1,.9-.95,1.43-.63,1.11.63-.48,1.48-1.16,2.74-1.9,4.06-1.16,1.95-2.48,3.8-4.06,5.38,2.06.11,4.06.11,6.07,0,1.64,0,3.43,0,5.17-.11-.16-3.01-.11-6.02-.37-8.97-.05-.16-.11-.32-.11-.48l4.12-6.07v.37c1.48,5.01,2.8,9.87,4.33,14.67.32-1.43.69-2.9,1.27-4.33.53-1.43,2.64-5.91,4.91-4.91,1.16.53,2.27,3.59,2.74,4.59,1.06,2.69,1.85,5.44,2.9,8.08.16-1.58.37-3.11.95-4.64,0-1.37,2.11-5.07,3.38-5.17.53-.32.95-.16,1.37.26.05,0,.05.05.11.16.69.32,1.11.85,1.64,1.32,1.16.84,2.06,1.37,3.43,2.01,4.06,1.85,8.92,2.64,13.41,2.8l.16-.16c0-.05.05-.05.05-.05l.53-.37c.26,0,.37.37.37.53l-2.27,4.17c-1,1-3.8.26-5.07.16-5.01-.42-10.98-1.43-14.83-4.96-.26,3.06-.32,6.23-1.64,9.13l-3.11,3.96c-2.01-2.9-3.11-6.39-4.43-9.76-.63-1.53-1.21-3.38-2.27-4.8v.32c-.21,4.54.16,8.92.95,13.35l-3.85,6.44c-.11-.16-.11-.26-.11-.32-2.38-4.96-4.17-10.08-5.7-15.36-1.53,2.27-1.58,3.22-3.64,4.12-1.16.48-3.64.84-6.18.95,1.9,1.69,3.59,3.75,5.17,6.12,0,.05.05.05.11.05l-4.54,7.71-.21-.26c-5.75-4.07-11.72-7.87-17.47-11.93-2.11-.26-4.33-.48-6.6-.42-1.95.37-3.96.58-6.02.58-.05.05-.21.05-.37.05,1.53-2.8,3.11-5.6,4.54-8.34h.53c1.58-.26,3.17-.48,4.65-.48,4.75-.79,9.24-2.38,13.72-4.49,1.64-.69,4.33-1.64,5.38-3.33.26-.42.58-.85.9-1.27Zm19.58.95q0-.05.05-.11c0-.05-.05,0-.05.11Z"/>
        <path class="cls-2" d="m116.91,142.35c.42-.79,1.16-2.53,2.22-3.91-4.17-2.59-7.86-6.07-10.35-10.35-3.8-6.44-4.17-11.56-.32-17.84,1.43-2.32,3.22-4.43,6.07-3.91,4.43.69,8.39,5.7,11.24,9.87.16-.69.42-1.43.74-2.11,4.12-11.09,14.94-22.17,27.71-19.64,2.74.53,5.49,1.64,7.55,3.59,4.17,4.28,1.21,9.29-2.11,12.98-2.27,2.53-5.23,4.49-8.08,6.28-6.92,4.49-15.04,9.08-18.95,16.73l-.16.37c3.33,1.11,7.34,1.64,10.03,3.96h.32l-3.06,4.75-2.06,3.7c-2.22-.26-4.38-.48-6.65-.74.9,2.85,3.06,4.96,7.13,5.33,1.69.05,3.17-.32,4.75-.9.63-.11.11.95,0,1.16-.42,1.11-1.21,2.64-2.27,3.22-7.5,3.01-13.93-1.11-13.2-9.13-3.75-.21-7.39-.32-11.14-.26-.84-.48.32-2.53.58-3.17Zm14.09-8.39l.16.11c2.64-5.12,6.39-9.76,10.61-13.67,4.06-3.75,8.82-6.6,13.41-9.61,1.53-1,3.06-1.95,4.38-3.17l.26-.21-.26-.74c-.74-1.53-2.16-2.8-3.59-3.7-3.8-2.43-8.92-2.8-13.3-1.74-2.85.63-5.44,1.85-7.76,3.64-4.12,3.17-5.91,6.7-6.23,11.88-.21,2.01.16,3.96,1.11,5.65l.69,1.21.21.21-4.12,6.91c-.05-.11-.05-.16-.05-.21-.32-.37-.58-.79-.74-1.21-3.06-4.75-6.65-9.92-11.03-13.51-1.16-.9-2.69-1.9-4.22-2.01,1.74,9.71,11.93,17,20.48,20.16Zm30.61-28.08c.21-.32.37-.42.11-.21-.05.11-.11.16-.11.21Z"/>
        <path class="cls-1" d="m195.28,114.21c-.21-.37-.53-.69-.79-1-.9-.95-1.43-.63-1.11.63.48,1.48,1.16,2.74,1.9,4.06,1.16,1.95,2.48,3.8,4.06,5.38-2.06.11-4.06.11-6.07,0-1.64,0-3.43,0-5.17-.11.16-3.01.11-6.02.37-8.97.05-.16.11-.32.11-.48l-4.12-6.07v.37c-1.48,5.01-2.8,9.87-4.33,14.67-.32-1.43-.69-2.9-1.27-4.33-.53-1.42-2.64-5.91-4.91-4.91-1.16.53-2.27,3.59-2.74,4.59-1.06,2.69-1.85,5.44-2.9,8.08-.16-1.58-.37-3.11-.95-4.64,0-1.37-2.11-5.07-3.38-5.17-.53-.32-.95-.16-1.37.26-.05,0-.05.05-.11.16-.69.32-1.11.85-1.64,1.32-1.16.84-2.06,1.37-3.43,2.01-4.06,1.85-8.92,2.64-13.41,2.8l-.16-.16c0-.05-.05-.05-.05-.05l-.53-.37c-.26,0-.37.37-.37.53l2.27,4.17c1,1,3.8.26,5.07.16,5.01-.42,10.98-1.43,14.83-4.96.26,3.06.32,6.23,1.64,9.13l3.11,3.96c2.01-2.9,3.11-6.39,4.43-9.76.63-1.53,1.21-3.38,2.27-4.8v.32c.21,4.54-.16,8.92-.95,13.35l3.85,6.44c.11-.16.11-.26.11-.32,2.38-4.96,4.17-10.08,5.7-15.36,1.53,2.27,1.58,3.22,3.64,4.12,1.16.47,3.64.84,6.18.95-1.9,1.69-3.59,3.75-5.17,6.12,0,.05-.05.05-.11.05l4.54,7.71.21-.26c5.75-4.06,11.72-7.86,17.47-11.93,2.11-.26,4.33-.48,6.6-.42,1.95.37,3.96.58,6.02.58.05.05.21.05.37.05-1.53-2.8-3.11-5.6-4.54-8.34h-.53c-1.58-.26-3.17-.48-4.65-.48-4.75-.79-9.24-2.38-13.72-4.49-1.64-.69-4.33-1.64-5.38-3.33-.26-.42-.58-.84-.9-1.27Z"/>
      </g>
    </g>
  </g>
</svg>