<?xml version="1.0" encoding="UTF-8"?>
<svg id="Camada_2" data-name="Camada 2" xmlns="http://www.w3.org/2000/svg" viewBox="0 0 1183.23 177.08">
  <defs>
    <style>
      .cls-1 {
        fill: #fff;
      }

      .cls-2 {
        fill: #fff;
      }
      .cls-1-2 {
        fill: #9d1f6a;
      }
    </style>
  </defs>
  <g id="grafitti-kalifa">
    <g>
      <g>
        <path class="cls-2" d="m506.84,161.13c.14.14.14.29.14.43,0,.86-1.43,2.14-6.99,6.85-4,3.28-7.56,6.42-7.99,6.57-.14,0-.14.14-.29.14-.29,0-1-.86-1.86-2-4.42-6.57-11.7-19.41-16.56-29.54-6.57-12.85-8.42-17.13-13.42-31.26-2-5.42-4.14-10.85-4.57-11.56-.86-1-2-1.43-3.28-1.43-1.14,0-2.57.29-4.42,1.14-3.28,1.28-16.56,8.56-17.13,9.42v.14c0,2.28,10.85,26.41,17.13,36.82,1.43,2.57,2.28,4.28,2.28,5.14,0,.14,0,.43-.14.43-1,1.71-14.56,12.27-15.56,12.27-.86-.29-4-5.71-9.85-17.41-7.99-16.13-13.85-31.26-20.27-54.24-6.28-22.12-14.56-55.81-14.56-60.8v-2.43l7.56-6.28c3.85-3.43,7.71-6.28,8.28-6.28s.71.71.71,1.57c0,1.57,4.85,24.12,7.85,36.54,5,19.7,13.13,47.53,14.27,47.53l5.14-5.42c7.56-8.28,10.28-13.42,10.28-19.27v-1.57c0-6.85-3.85-14.27-17.56-39.68-3.71-6.71-6.57-12.7-6.57-13.27,0-1,14.56-13.56,15.7-13.56.86,0,1.86,1,1.86,1.57l-.14.57c0,.71,2.85,6.14,5.99,12.42,13.56,25.26,17.41,34.11,17.41,41.53v1.43c0,6.99-3.71,12.42-14.27,23.55-3.14,3.14-4.42,4.71-4.42,5v.14c.14,0,.29,0,.43-.14,13.85-8.28,20.7-11.56,24.69-11.56,1.57,0,2.71.43,3.57,1.43,2,2.14,3.14,4.42,5.99,13.13,7.14,19.7,15.7,38.25,26.12,54.52l4.42,7.42Z"/>
        <path class="cls-2" d="m576.5,149c1.57,2.85,3.14,5.71,3.14,6.14s-13.85,13.84-14.99,14.27h-.29c-.86,0-1.71-1.14-7.14-11.13-5.57-9.71-9.42-16.27-13.56-24.83l-3.71-7.99-5.28-10.7-7.85.43c-2.14.14-4,.14-5.28.29-1.57,0-2.28.29-2.28.43-.14,0-.57,5.71-.57,12.42-.14,12.7-1.28,24.12-2.14,29.55-.29,1.86-2.28,4.71-8.56,10.56-4,3.71-6.42,5.85-7.71,6.71-1.14.57-1.86-1.28-1-2.57,3.28-5.99,3.28-46.24,2.28-53.38l-.29-3-5.85.14c-1.43.14-6.85.43-7.14-.43l-.14-.14.29-.71c0-.57,2.57-4.42,5.57-8.71,4-6.42,5.57-8.14,6.42-8.14h.14c.14,0,.14-.14.14-.14.14,0-.43-10.99-1.57-24.12l-1.71-17.56c-1.43-16.7-3.57-32.11-4.57-35.54l-.14-.29c0-1.28,1.14-2.43,7.42-7.99,3.85-3.71,7.56-7.14,7.99-7.28,1,0,2.28,1.57,5,6.85,2.85,6.14,7.42,16.7,15.27,34.97,11.7,28.26,18.55,44.67,20.41,47.39l.29.43c.43.86,1.14,1,3.14.86,2.43-.29,3.71.14,4,.43l.43.29c0,.43-1,2.14-2.14,3.71l-2,2.85,5.57,12.13c5.28,10.42,13.85,26.98,18.41,33.83Zm-49.96-52.24c0-.43-2-5.71-4.57-11.7-1.43-3.43-2.57-5.85-3.28-7.28-.43-1.28-1.14-1.86-1.28-1.86-.57,0-.43,3.85.14,11.7l.71,9.71h3c1.43,0,3.43,0,4-.14.71,0,1.28-.14,1.28-.43Z"/>
        <path class="cls-2" d="m654.58,133.44c1.14,2.14,8.13,23.12,8.13,24.12,0,.71-2.14,2.85-7.14,6.99-4,3.43-7.42,6.28-7.99,6.71-.14.14-.43.14-.71.14-.71,0-1.86-.29-4.14-1.14-5.99-2.28-23.26-8.28-33.54-11.42-6.71-2-10.13-2.85-13.7-2.85l-4.85-.57-7.42,6.28c-4.85,4.14-7.28,6-8.42,6-.57,0-.71-.43-.71-1.28,0-.57-.14-1-.57-1.14q-.14-.29-.14-.57c0-.71,1.14-2.71,5-9.28,5.99-9.99,8.71-17.27,8.71-25.55,0-5.42-1.14-11.28-3.43-18.84-3.71-12.27-13.27-35.54-24.69-60.38-5.28-11.85-9.71-22.41-9.71-23.55,0-.86,15.27-13.42,16.41-13.42.86,0,1.57,1.14,1.57,1.86,0,.29,0,.43-.14.57v.29c0,1.57,4,10.71,9.56,23.12,5,11.13,14.13,32.83,17.84,42.11,6.28,16.41,9.42,28.12,9.42,37.25,0,3-.29,5.71-1,8.28-1.28,4.71-4.42,11.56-6.99,16.13-1,1.28-1.43,2.28-1.43,2.57.14,0,1.14-.43,2-1.43,3-2,6.57-3.28,10.7-3.28h.86c5.14,0,8.28.86,20.84,4.71,5,1.43,9.28,2.57,9.99,2.57v-.14c0-.43-.14-.71-.43-1.28s-.57-1.14-.57-1.43c.43-.71,15.13-13.27,15.7-13.27.29,0,.86.71,1,1.14Z"/>
        <path class="cls-2" d="m642.45,59.37l-5.42-5.71-1.29,4.28c-.71,2.43-1.57,4.42-1.86,4.71h-.29c-1.86,0-19.13-2.71-19.7-3.28v-.43c0-1.14,1-4.71,3.28-11.13l3.85-10.99-7.71-7.99c-5.71-5.85-8.28-9.28-8.28-10.42q0-.14.14-.29c0-.14,3.71-3.14,7.71-6.57l7.56-6.28,1.28,1.57c5.71,6.71,7.14,7.99,7.57,7.99.57-.14,2.14-5.71,2.43-8.56.14-1.28.71-2,1.14-2,2.14,0,19.7,2.85,19.98,3.43.14.14.14.29.14.71,0,2-1.57,6.99-4.43,14.27-1.57,4.14-3,7.85-3,8.28,0,1,16.13,18.27,17.41,18.84.43.14.86.43.86.86,0,1.14-2,3.28-7.28,7.56-3.85,3.43-7.42,6.28-7.99,6.28h-.14c-1,0-2.85-1.71-5.99-5.14Zm47.1,97.2v.14c0,.57-1.86,2.43-7.42,7.14-4.14,3.43-7.71,6.14-7.99,6.14-.14,0-.43-.14-.57-.29-.43-.71-15.42-38.68-17.41-44.25-1.14-2.85-4.71-12.42-7.71-21.41-3.14-8.56-6.42-17.56-6.99-19.84-1.14-2.14-1.86-4.42-1.86-4.85s3.42-3.71,7.71-7.14c4.85-4.14,6.99-6,8.28-6,.86,0,1.14,1,1.71,2.85.71,2.28,12.13,34.54,16.7,46.67,1.14,3,5,13.13,8.85,22.41,3.57,9.42,6.71,17.7,6.71,18.41Z"/>
        <path class="cls-2" d="m753.49,61.08c1,1.71,1.29,3.71,1.29,5.85,0,2.28-.43,5.14-1.86,7.71-1.43,3.14-2,3.85-9.56,10.13-4.57,3.57-8.28,6.57-8.42,6.57s-.71-.29-1.14-.86c-.29-.14-.43-.43-.43-.57,0-.43.43-.86,1-1.57,2-1.86,3.85-6.99,3.85-9.99s-1.86-6.71-5.14-9.71c-2-2.14-5.42-4-15.13-8.85-12.56-6.28-18.13-9.56-22.41-12.99-1.14-1-2.28-1.71-2.57-1.71h-.29v.29c0,2.85,7.99,30.97,13.99,48.96l3,9.28,3.71.86c1.86.43,6,1.57,8.99,2.14,3.14.71,5.99,1.57,6.28,1.86q.29.14.29.43c0,.71-1.29,1.71-4.28,4.42-3,2.43-5.85,5-6.85,5.57l-1.57,1.71,2.71,6c1.43,3.28,5.71,12.27,9.28,19.7,3.43,6.99,6.28,13.13,6.28,13.7-.29.57-14.7,12.56-15.27,12.85-.29,0-.71-.29-1.43-1-.43-.57-3.42-6.99-6.85-13.99-6.28-12.99-10.99-23.27-14.99-33.68l-2.28-6.28-7.42-1.71c-10.56-2.28-12.99-3-14.13-4.28-.43-.29-.86-.57-.86-1,0-.86,1.86-2.43,8.14-7.71,4.14-3.43,7.42-5.99,7.42-6.14l-1-2.43c-1.29-3.71-5.71-20.13-7.99-28.4-4.14-16.27-7.28-35.11-7.28-42.53v-3.28l7.85-6.57c8.56-6.99,10.42-8.56,11.28-8.56.43,0,.57.14.71.29.29.43.71,1.14.71,1.71,0,3.14,4.71,10.71,10.71,16.84,8.71,8.85,14.56,12.99,31.4,21.41,14.84,7.42,17.7,9.42,20.27,15.56Z"/>
        <path class="cls-2" d="m830.57,149c1.57,2.85,3.14,5.71,3.14,6.14s-13.84,13.84-14.99,14.27h-.29c-.86,0-1.71-1.14-7.14-11.13-5.57-9.71-9.42-16.27-13.56-24.83l-3.71-7.99-5.28-10.7-7.85.43c-2.14.14-4,.14-5.28.29-1.57,0-2.28.29-2.28.43-.14,0-.57,5.71-.57,12.42-.14,12.7-1.28,24.12-2.14,29.55-.29,1.86-2.28,4.71-8.56,10.56-4,3.71-6.42,5.85-7.71,6.71-1.14.57-1.86-1.28-1-2.57,3.28-5.99,3.28-46.24,2.28-53.38l-.29-3-5.85.14c-1.43.14-6.85.43-7.14-.43l-.14-.14.29-.71c0-.57,2.57-4.42,5.57-8.71,4-6.42,5.57-8.14,6.42-8.14h.14c.14,0,.14-.14.14-.14.14,0-.43-10.99-1.57-24.12l-1.71-17.56c-1.43-16.7-3.57-32.11-4.57-35.54l-.14-.29c0-1.28,1.14-2.43,7.42-7.99,3.85-3.71,7.56-7.14,7.99-7.28,1,0,2.28,1.57,5,6.85,2.85,6.14,7.42,16.7,15.27,34.97,11.7,28.26,18.55,44.67,20.41,47.39l.29.43c.43.86,1.14,1,3.14.86,2.43-.29,3.71.14,4,.43l.43.29c0,.43-1,2.14-2.14,3.71l-2,2.85,5.57,12.13c5.28,10.42,13.84,26.98,18.41,33.83Zm-49.96-52.24c0-.43-2-5.71-4.57-11.7-1.43-3.43-2.57-5.85-3.28-7.28-.43-1.28-1.14-1.86-1.28-1.86-.57,0-.43,3.85.14,11.7l.71,9.71h3c1.43,0,3.43,0,4-.14.71,0,1.29-.14,1.29-.43Z"/>
      </g>
      <g>
        <path class="cls-1" d="m80.36,64.37c.57-1,1.43-1.86,2.14-2.71,2.43-2.57,3.85-1.71,3,1.71-1.28,4-3.14,7.42-5.14,10.99-3.14,5.28-6.71,10.28-10.99,14.56,5.57.29,10.99.29,16.41,0,4.42,0,9.28,0,13.99-.29-.43-8.14-.29-16.27-1-24.26-.14-.43-.29-.86-.29-1.28l11.13-16.41v1c4,13.56,7.56,26.69,11.7,39.68.86-3.85,1.86-7.85,3.43-11.7,1.43-3.85,7.14-15.99,13.27-13.27,3.14,1.43,6.14,9.71,7.42,12.42,2.85,7.28,5,14.7,7.85,21.84.43-4.28,1-8.42,2.57-12.56,0-3.71,5.71-13.7,9.13-13.99,1.43-.86,2.57-.43,3.71.71.14,0,.14.14.29.43,1.86.86,3,2.28,4.42,3.57,3.14,2.28,5.57,3.71,9.28,5.42,10.99,5,24.12,7.14,36.25,7.56l.43-.43c0-.14.14-.14.14-.14l1.43-1c.71,0,1,1,1,1.43l-6.14,11.28c-2.71,2.71-10.28.71-13.7.43-13.56-1.14-29.69-3.85-40.11-13.42-.71,8.28-.86,16.84-4.42,24.69l-8.42,10.71c-5.42-7.85-8.42-17.27-11.99-26.41-1.71-4.14-3.28-9.13-6.14-12.99v.86c-.57,12.27.43,24.12,2.57,36.11l-10.42,17.41c-.29-.43-.29-.71-.29-.86-6.42-13.42-11.28-27.26-15.42-41.53-4.14,6.14-4.28,8.71-9.85,11.13-3.14,1.28-9.85,2.28-16.7,2.57,5.14,4.57,9.71,10.13,13.99,16.56,0,.14.14.14.29.14l-12.27,20.84-.57-.71c-15.56-10.99-31.69-21.27-47.24-32.26-5.71-.71-11.7-1.28-17.84-1.14-5.28,1-10.7,1.57-16.27,1.57-.14.14-.57.14-1,.14,4.14-7.56,8.42-15.13,12.27-22.55h1.43c4.28-.71,8.56-1.28,12.56-1.28,12.85-2.14,24.98-6.42,37.11-12.13,4.42-1.86,11.7-4.42,14.56-8.99.71-1.14,1.57-2.28,2.43-3.43Zm52.95,2.57q0-.14.14-.29c0-.14-.14,0-.14.29Z"/>
        <path class="cls-1-2" d="m241.36,140.44c1.14-2.14,3.14-6.85,5.99-10.56-11.28-6.99-21.27-16.41-27.98-27.98-10.28-17.41-11.28-31.26-.86-48.24,3.85-6.28,8.71-11.99,16.41-10.56,11.99,1.86,22.69,15.42,30.4,26.69.43-1.86,1.14-3.85,2-5.71,11.13-29.97,40.39-59.95,74.93-53.1,7.42,1.43,14.84,4.42,20.41,9.71,11.28,11.56,3.28,25.12-5.71,35.11-6.14,6.85-14.13,12.13-21.84,16.98-18.7,12.13-40.68,24.55-51.24,45.25l-.43,1c8.99,3,19.84,4.42,27.12,10.71h.86l-8.28,12.85-5.57,9.99c-5.99-.71-11.85-1.28-17.98-2,2.43,7.71,8.28,13.42,19.27,14.42,4.57.14,8.56-.86,12.85-2.43,1.71-.29.29,2.57,0,3.14-1.14,3-3.28,7.14-6.14,8.71-20.27,8.14-37.68-3-35.68-24.69-10.13-.57-19.98-.86-30.12-.71-2.28-1.28.86-6.85,1.57-8.56Zm38.11-22.69l.43.29c7.14-13.84,17.27-26.41,28.69-36.97,10.99-10.13,23.84-17.84,36.25-25.98,4.14-2.71,8.28-5.28,11.85-8.56l.71-.57-.71-2c-2-4.14-5.85-7.56-9.71-9.99-10.28-6.57-24.12-7.56-35.97-4.71-7.71,1.71-14.7,5-20.98,9.85-11.13,8.56-15.99,18.13-16.84,32.11-.57,5.42.43,10.7,3,15.27l1.86,3.28.57.57-11.13,18.7c-.14-.29-.14-.43-.14-.57-.86-1-1.57-2.14-2-3.28-8.28-12.85-17.98-26.83-29.83-36.54-3.14-2.43-7.28-5.14-11.42-5.42,4.71,26.26,32.26,45.96,55.38,54.52Zm82.78-75.93c.57-.86,1-1.14.29-.57-.14.29-.29.43-.29.57Z"/>
      </g>
      <g>
        <path class="cls-1" d="m1102.87,54.37c-.57-1-1.43-1.86-2.14-2.71-2.43-2.57-3.85-1.71-3,1.71,1.28,4,3.14,7.42,5.14,10.99,3.14,5.28,6.71,10.28,10.99,14.56-5.57.29-10.99.29-16.41,0-4.42,0-9.28,0-13.99-.29.43-8.14.29-16.27,1-24.26.14-.43.29-.86.29-1.28l-11.13-16.41v1c-4,13.56-7.56,26.69-11.7,39.68-.86-3.85-1.86-7.85-3.43-11.7-1.43-3.85-7.14-15.99-13.27-13.27-3.14,1.43-6.14,9.71-7.42,12.42-2.85,7.28-5,14.7-7.85,21.84-.43-4.28-1-8.42-2.57-12.56,0-3.71-5.71-13.7-9.13-13.99-1.43-.86-2.57-.43-3.71.71-.14,0-.14.14-.29.43-1.86.86-3,2.28-4.42,3.57-3.14,2.28-5.57,3.71-9.28,5.42-10.99,5-24.12,7.14-36.25,7.56l-.43-.43c0-.14-.14-.14-.14-.14l-1.43-1c-.71,0-1,1-1,1.43l6.14,11.28c2.71,2.71,10.28.71,13.7.43,13.56-1.14,29.69-3.85,40.11-13.42.71,8.28.86,16.84,4.42,24.69l8.42,10.71c5.42-7.85,8.42-17.27,11.99-26.41,1.71-4.14,3.28-9.13,6.14-12.99v.86c.57,12.27-.43,24.12-2.57,36.11l10.42,17.41c.29-.43.29-.71.29-.86,6.42-13.42,11.28-27.26,15.42-41.53,4.14,6.14,4.28,8.71,9.85,11.13,3.14,1.28,9.85,2.28,16.7,2.57-5.14,4.57-9.71,10.13-13.99,16.56,0,.14-.14.14-.29.14l12.27,20.84.57-.71c15.56-10.99,31.69-21.27,47.24-32.26,5.71-.71,11.7-1.28,17.84-1.14,5.28,1,10.7,1.57,16.27,1.57.14.14.57.14,1,.14-4.14-7.56-8.42-15.13-12.27-22.55h-1.43c-4.28-.71-8.56-1.28-12.56-1.28-12.85-2.14-24.98-6.42-37.11-12.13-4.42-1.86-11.7-4.42-14.56-8.99-.71-1.14-1.57-2.28-2.43-3.43Zm-52.95,2.57q0-.14-.14-.29c0-.14.14,0,.14.29Z"/>
        <path class="cls-1-2" d="m941.86,130.44c-1.14-2.14-3.14-6.85-5.99-10.56,11.28-6.99,21.27-16.41,27.98-27.98,10.28-17.41,11.28-31.26.86-48.24-3.85-6.28-8.71-11.99-16.41-10.56-11.99,1.86-22.69,15.42-30.4,26.69-.43-1.86-1.14-3.85-2-5.71-11.13-29.97-40.39-59.95-74.93-53.1-7.42,1.43-14.84,4.42-20.41,9.71-11.28,11.56-3.28,25.12,5.71,35.11,6.14,6.85,14.13,12.13,21.84,16.98,18.7,12.13,40.68,24.55,51.24,45.25l.43,1c-8.99,3-19.84,4.42-27.12,10.71h-.86l8.28,12.85,5.57,9.99c5.99-.71,11.85-1.28,17.98-2-2.43,7.71-8.28,13.42-19.27,14.42-4.57.14-8.56-.86-12.85-2.43-1.71-.29-.29,2.57,0,3.14,1.14,3,3.28,7.14,6.14,8.71,20.27,8.14,37.68-3,35.68-24.69,10.13-.57,19.98-.86,30.12-.71,2.28-1.28-.86-6.85-1.57-8.56Zm-38.11-22.69l-.43.29c-7.14-13.84-17.27-26.41-28.69-36.97-10.99-10.13-23.84-17.84-36.25-25.98-4.14-2.71-8.28-5.28-11.85-8.56l-.71-.57.71-2c2-4.14,5.85-7.56,9.71-9.99,10.28-6.57,24.12-7.56,35.97-4.71,7.71,1.71,14.7,5,20.98,9.85,11.13,8.56,15.99,18.13,16.84,32.11.57,5.42-.43,10.7-3,15.27l-1.86,3.28-.57.57,11.13,18.7c.14-.29.14-.43.14-.57.86-1,1.57-2.14,2-3.28,8.28-12.85,17.98-26.83,29.83-36.54,3.14-2.43,7.28-5.14,11.42-5.42-4.71,26.26-32.26,45.96-55.38,54.52Zm-82.78-75.93c-.57-.86-1-1.14-.29-.57.14.29.29.43.29.57Z"/>
      </g>
    </g>
  </g>
</svg>